<mxfile host="Electron" agent="Mozilla/5.0 (X11; Linux x86_64) AppleWebKit/537.36 (KHTML, like Gecko) draw.io/24.7.8 Chrome/128.0.6613.36 Electron/32.0.1 Safari/537.36" version="24.7.8">
  <diagram name="Page-1" id="e56a1550-8fbb-45ad-956c-1786394a9013">
    <mxGraphModel dx="6215" dy="3480" grid="1" gridSize="10" guides="1" tooltips="1" connect="1" arrows="1" fold="1" page="1" pageScale="1" pageWidth="1100" pageHeight="850" background="#545454" math="0" shadow="0">
      <root>
        <mxCell id="0" />
        <mxCell id="1" parent="0" />
        <mxCell id="r-mluGW43JwhEDr9T5hr-49" style="edgeStyle=orthogonalEdgeStyle;rounded=0;orthogonalLoop=1;jettySize=auto;html=1;exitX=0.5;exitY=0;exitDx=0;exitDy=0;entryX=0.5;entryY=1;entryDx=0;entryDy=0;" edge="1" parent="1" source="2e49270ec7c68f3f-1" target="2e49270ec7c68f3f-8">
          <mxGeometry relative="1" as="geometry" />
        </mxCell>
        <mxCell id="r-mluGW43JwhEDr9T5hr-50" style="edgeStyle=orthogonalEdgeStyle;rounded=0;orthogonalLoop=1;jettySize=auto;html=1;exitX=1;exitY=0.25;exitDx=0;exitDy=0;entryX=0.5;entryY=1;entryDx=0;entryDy=0;" edge="1" parent="1" source="2e49270ec7c68f3f-1" target="HjesYyCfLnxQGXRYato6-9">
          <mxGeometry relative="1" as="geometry" />
        </mxCell>
        <mxCell id="r-mluGW43JwhEDr9T5hr-51" style="edgeStyle=orthogonalEdgeStyle;rounded=0;orthogonalLoop=1;jettySize=auto;html=1;exitX=1;exitY=0.75;exitDx=0;exitDy=0;" edge="1" parent="1" source="2e49270ec7c68f3f-1" target="HjesYyCfLnxQGXRYato6-12">
          <mxGeometry relative="1" as="geometry" />
        </mxCell>
        <mxCell id="2e49270ec7c68f3f-1" value="Auth" style="swimlane;html=1;fontStyle=0;childLayout=stackLayout;horizontal=1;startSize=120;horizontalStack=0;resizeParent=1;resizeLast=0;collapsible=1;marginBottom=0;swimlaneFillColor=#ffffff;align=center;rounded=0;shadow=0;comic=0;labelBackgroundColor=none;strokeWidth=1;fontFamily=Verdana;fontSize=14;" parent="1" vertex="1">
          <mxGeometry x="320" y="30" width="160" height="120" as="geometry" />
        </mxCell>
        <mxCell id="HjesYyCfLnxQGXRYato6-27" style="edgeStyle=orthogonalEdgeStyle;rounded=0;orthogonalLoop=1;jettySize=auto;html=1;exitX=1;exitY=1;exitDx=0;exitDy=0;entryX=0;entryY=0.5;entryDx=0;entryDy=0;" parent="1" source="2e49270ec7c68f3f-80" target="HjesYyCfLnxQGXRYato6-24" edge="1">
          <mxGeometry relative="1" as="geometry" />
        </mxCell>
        <mxCell id="HjesYyCfLnxQGXRYato6-28" style="edgeStyle=orthogonalEdgeStyle;rounded=0;orthogonalLoop=1;jettySize=auto;html=1;exitX=0.75;exitY=1;exitDx=0;exitDy=0;entryX=0;entryY=0.5;entryDx=0;entryDy=0;" parent="1" source="2e49270ec7c68f3f-80" target="HjesYyCfLnxQGXRYato6-25" edge="1">
          <mxGeometry relative="1" as="geometry" />
        </mxCell>
        <mxCell id="HjesYyCfLnxQGXRYato6-32" style="edgeStyle=orthogonalEdgeStyle;rounded=0;orthogonalLoop=1;jettySize=auto;html=1;exitX=1;exitY=0.25;exitDx=0;exitDy=0;entryX=0;entryY=0.5;entryDx=0;entryDy=0;" parent="1" source="2e49270ec7c68f3f-80" target="2e49270ec7c68f3f-1" edge="1">
          <mxGeometry relative="1" as="geometry" />
        </mxCell>
        <mxCell id="HjesYyCfLnxQGXRYato6-33" style="edgeStyle=orthogonalEdgeStyle;rounded=0;orthogonalLoop=1;jettySize=auto;html=1;exitX=0.5;exitY=1;exitDx=0;exitDy=0;entryX=0;entryY=0.5;entryDx=0;entryDy=0;" parent="1" source="2e49270ec7c68f3f-80" target="r-mluGW43JwhEDr9T5hr-57" edge="1">
          <mxGeometry relative="1" as="geometry">
            <Array as="points">
              <mxPoint x="100" y="840" />
            </Array>
          </mxGeometry>
        </mxCell>
        <mxCell id="r-mluGW43JwhEDr9T5hr-58" style="edgeStyle=orthogonalEdgeStyle;rounded=0;orthogonalLoop=1;jettySize=auto;html=1;exitX=0.25;exitY=1;exitDx=0;exitDy=0;entryX=0;entryY=0.5;entryDx=0;entryDy=0;" edge="1" parent="1" source="2e49270ec7c68f3f-80" target="HjesYyCfLnxQGXRYato6-29">
          <mxGeometry relative="1" as="geometry">
            <mxPoint x="40" y="450" as="sourcePoint" />
            <mxPoint x="295" y="920" as="targetPoint" />
            <Array as="points">
              <mxPoint x="40" y="370" />
              <mxPoint x="40" y="990" />
            </Array>
          </mxGeometry>
        </mxCell>
        <mxCell id="2e49270ec7c68f3f-80" value="Home" style="swimlane;html=1;fontStyle=0;childLayout=stackLayout;horizontal=1;startSize=100;horizontalStack=0;resizeParent=1;resizeLast=0;collapsible=1;marginBottom=0;swimlaneFillColor=#ffffff;align=center;rounded=0;shadow=0;comic=0;labelBackgroundColor=none;strokeWidth=1;fontFamily=Verdana;fontSize=14;" parent="1" vertex="1">
          <mxGeometry x="10" y="270" width="180" height="100" as="geometry" />
        </mxCell>
        <mxCell id="r-mluGW43JwhEDr9T5hr-9" style="edgeStyle=orthogonalEdgeStyle;rounded=0;orthogonalLoop=1;jettySize=auto;html=1;exitX=1;exitY=0.25;exitDx=0;exitDy=0;entryX=0;entryY=0.5;entryDx=0;entryDy=0;" edge="1" parent="1" source="HjesYyCfLnxQGXRYato6-9" target="HjesYyCfLnxQGXRYato6-23">
          <mxGeometry relative="1" as="geometry" />
        </mxCell>
        <mxCell id="r-mluGW43JwhEDr9T5hr-44" style="edgeStyle=orthogonalEdgeStyle;rounded=0;orthogonalLoop=1;jettySize=auto;html=1;exitX=1;exitY=0.5;exitDx=0;exitDy=0;entryX=0;entryY=0.5;entryDx=0;entryDy=0;" edge="1" parent="1" source="HjesYyCfLnxQGXRYato6-9" target="HjesYyCfLnxQGXRYato6-21">
          <mxGeometry relative="1" as="geometry" />
        </mxCell>
        <mxCell id="HjesYyCfLnxQGXRYato6-9" value="Log in" style="swimlane;html=1;fontStyle=0;childLayout=stackLayout;horizontal=1;startSize=120;horizontalStack=0;resizeParent=1;resizeLast=0;collapsible=1;marginBottom=0;swimlaneFillColor=#ffffff;align=center;rounded=0;shadow=0;comic=0;labelBackgroundColor=none;strokeWidth=1;fontFamily=Verdana;fontSize=14;swimlaneLine=1;" parent="1" vertex="1">
          <mxGeometry x="580" y="-100" width="170" height="120" as="geometry" />
        </mxCell>
        <mxCell id="HjesYyCfLnxQGXRYato6-12" value="Forgot" style="swimlane;html=1;fontStyle=0;childLayout=stackLayout;horizontal=1;startSize=120;horizontalStack=0;resizeParent=1;resizeLast=0;collapsible=1;marginBottom=0;swimlaneFillColor=#ffffff;align=center;rounded=0;shadow=0;comic=0;labelBackgroundColor=none;strokeWidth=1;fontFamily=Verdana;fontSize=14;swimlaneLine=1;" parent="1" vertex="1">
          <mxGeometry x="580" y="170" width="160" height="120" as="geometry" />
        </mxCell>
        <mxCell id="r-mluGW43JwhEDr9T5hr-48" style="edgeStyle=orthogonalEdgeStyle;rounded=0;orthogonalLoop=1;jettySize=auto;html=1;exitX=0.5;exitY=1;exitDx=0;exitDy=0;entryX=0.5;entryY=0;entryDx=0;entryDy=0;" edge="1" parent="1" source="HjesYyCfLnxQGXRYato6-14" target="HjesYyCfLnxQGXRYato6-21">
          <mxGeometry relative="1" as="geometry" />
        </mxCell>
        <mxCell id="HjesYyCfLnxQGXRYato6-14" value="Sing in (student)" style="swimlane;html=1;fontStyle=0;childLayout=stackLayout;horizontal=1;startSize=120;horizontalStack=0;resizeParent=1;resizeLast=0;collapsible=1;marginBottom=0;swimlaneFillColor=#ffffff;align=center;rounded=0;shadow=0;comic=0;labelBackgroundColor=none;strokeWidth=1;fontFamily=Verdana;fontSize=14;swimlaneLine=1;" parent="1" vertex="1">
          <mxGeometry x="585" y="-370" width="160" height="120" as="geometry" />
        </mxCell>
        <mxCell id="r-mluGW43JwhEDr9T5hr-39" style="edgeStyle=orthogonalEdgeStyle;rounded=0;orthogonalLoop=1;jettySize=auto;html=1;exitX=1;exitY=0.5;exitDx=0;exitDy=0;entryX=0.5;entryY=0;entryDx=0;entryDy=0;" edge="1" parent="1" source="HjesYyCfLnxQGXRYato6-15" target="HjesYyCfLnxQGXRYato6-23">
          <mxGeometry relative="1" as="geometry" />
        </mxCell>
        <mxCell id="r-mluGW43JwhEDr9T5hr-12" style="edgeStyle=orthogonalEdgeStyle;rounded=0;orthogonalLoop=1;jettySize=auto;html=1;exitX=1;exitY=0.25;exitDx=0;exitDy=0;entryX=0;entryY=0.5;entryDx=0;entryDy=0;" edge="1" parent="1" source="HjesYyCfLnxQGXRYato6-21" target="r-mluGW43JwhEDr9T5hr-1">
          <mxGeometry relative="1" as="geometry" />
        </mxCell>
        <mxCell id="r-mluGW43JwhEDr9T5hr-13" style="edgeStyle=orthogonalEdgeStyle;rounded=0;orthogonalLoop=1;jettySize=auto;html=1;exitX=1;exitY=0.5;exitDx=0;exitDy=0;entryX=0;entryY=0.5;entryDx=0;entryDy=0;" edge="1" parent="1" source="HjesYyCfLnxQGXRYato6-21" target="r-mluGW43JwhEDr9T5hr-3">
          <mxGeometry relative="1" as="geometry" />
        </mxCell>
        <mxCell id="r-mluGW43JwhEDr9T5hr-14" style="edgeStyle=orthogonalEdgeStyle;rounded=0;orthogonalLoop=1;jettySize=auto;html=1;exitX=1;exitY=0.75;exitDx=0;exitDy=0;entryX=0;entryY=0.5;entryDx=0;entryDy=0;" edge="1" parent="1" source="HjesYyCfLnxQGXRYato6-21" target="r-mluGW43JwhEDr9T5hr-6">
          <mxGeometry relative="1" as="geometry" />
        </mxCell>
        <mxCell id="r-mluGW43JwhEDr9T5hr-33" style="edgeStyle=orthogonalEdgeStyle;rounded=0;orthogonalLoop=1;jettySize=auto;html=1;exitX=1.005;exitY=0.948;exitDx=0;exitDy=0;entryX=0;entryY=0.5;entryDx=0;entryDy=0;exitPerimeter=0;" edge="1" parent="1" source="HjesYyCfLnxQGXRYato6-21" target="r-mluGW43JwhEDr9T5hr-31">
          <mxGeometry relative="1" as="geometry" />
        </mxCell>
        <mxCell id="r-mluGW43JwhEDr9T5hr-61" style="edgeStyle=orthogonalEdgeStyle;rounded=0;orthogonalLoop=1;jettySize=auto;html=1;exitX=0.75;exitY=1;exitDx=0;exitDy=0;entryX=0;entryY=0.5;entryDx=0;entryDy=0;" edge="1" parent="1" source="HjesYyCfLnxQGXRYato6-21" target="r-mluGW43JwhEDr9T5hr-60">
          <mxGeometry relative="1" as="geometry" />
        </mxCell>
        <mxCell id="HjesYyCfLnxQGXRYato6-21" value="Student" style="swimlane;html=1;fontStyle=0;childLayout=stackLayout;horizontal=1;startSize=120;horizontalStack=0;resizeParent=1;resizeLast=0;collapsible=1;marginBottom=0;swimlaneFillColor=#ffffff;align=center;rounded=0;shadow=0;comic=0;labelBackgroundColor=none;strokeWidth=1;fontFamily=Verdana;fontSize=14;" parent="1" vertex="1">
          <mxGeometry x="870" y="20" width="160" height="120" as="geometry" />
        </mxCell>
        <mxCell id="r-mluGW43JwhEDr9T5hr-18" style="edgeStyle=orthogonalEdgeStyle;rounded=0;orthogonalLoop=1;jettySize=auto;html=1;exitX=1;exitY=0.25;exitDx=0;exitDy=0;entryX=0;entryY=0.5;entryDx=0;entryDy=0;" edge="1" parent="1" source="HjesYyCfLnxQGXRYato6-23" target="r-mluGW43JwhEDr9T5hr-15">
          <mxGeometry relative="1" as="geometry" />
        </mxCell>
        <mxCell id="r-mluGW43JwhEDr9T5hr-19" style="edgeStyle=orthogonalEdgeStyle;rounded=0;orthogonalLoop=1;jettySize=auto;html=1;exitX=1;exitY=0.5;exitDx=0;exitDy=0;entryX=0;entryY=0.5;entryDx=0;entryDy=0;" edge="1" parent="1" source="HjesYyCfLnxQGXRYato6-23" target="r-mluGW43JwhEDr9T5hr-16">
          <mxGeometry relative="1" as="geometry" />
        </mxCell>
        <mxCell id="HjesYyCfLnxQGXRYato6-24" value="About" style="swimlane;html=1;fontStyle=0;childLayout=stackLayout;horizontal=1;startSize=120;horizontalStack=0;resizeParent=1;resizeLast=0;collapsible=1;marginBottom=0;swimlaneFillColor=#ffffff;align=center;rounded=0;shadow=0;comic=0;labelBackgroundColor=none;strokeWidth=1;fontFamily=Verdana;fontSize=14;" parent="1" vertex="1">
          <mxGeometry x="310" y="430" width="160" height="120" as="geometry" />
        </mxCell>
        <mxCell id="HjesYyCfLnxQGXRYato6-25" value="Feedback" style="swimlane;html=1;fontStyle=0;childLayout=stackLayout;horizontal=1;startSize=120;horizontalStack=0;resizeParent=1;resizeLast=0;collapsible=1;marginBottom=0;swimlaneFillColor=#ffffff;align=center;rounded=0;shadow=0;comic=0;labelBackgroundColor=none;strokeWidth=1;fontFamily=Verdana;fontSize=14;" parent="1" vertex="1">
          <mxGeometry x="310" y="600" width="160" height="120" as="geometry" />
        </mxCell>
        <mxCell id="HjesYyCfLnxQGXRYato6-29" value="Faculties" style="swimlane;html=1;fontStyle=0;childLayout=stackLayout;horizontal=1;startSize=120;horizontalStack=0;resizeParent=1;resizeLast=0;collapsible=1;marginBottom=0;swimlaneFillColor=#ffffff;align=center;rounded=0;shadow=0;comic=0;labelBackgroundColor=none;strokeWidth=1;fontFamily=Verdana;fontSize=14;" parent="1" vertex="1">
          <mxGeometry x="310" y="930" width="160" height="120" as="geometry" />
        </mxCell>
        <mxCell id="r-mluGW43JwhEDr9T5hr-1" value="Lecturs" style="swimlane;html=1;fontStyle=0;childLayout=stackLayout;horizontal=1;startSize=120;horizontalStack=0;resizeParent=1;resizeLast=0;collapsible=1;marginBottom=0;swimlaneFillColor=#ffffff;align=center;rounded=0;shadow=0;comic=0;labelBackgroundColor=none;strokeWidth=1;fontFamily=Verdana;fontSize=14;" vertex="1" parent="1">
          <mxGeometry x="1220" y="-200" width="160" height="120" as="geometry" />
        </mxCell>
        <mxCell id="r-mluGW43JwhEDr9T5hr-3" value="Class List" style="swimlane;html=1;fontStyle=0;childLayout=stackLayout;horizontal=1;startSize=120;horizontalStack=0;resizeParent=1;resizeLast=0;collapsible=1;marginBottom=0;swimlaneFillColor=#ffffff;align=center;rounded=0;shadow=0;comic=0;labelBackgroundColor=none;strokeWidth=1;fontFamily=Verdana;fontSize=14;" vertex="1" parent="1">
          <mxGeometry x="1220" y="-30" width="160" height="120" as="geometry" />
        </mxCell>
        <mxCell id="r-mluGW43JwhEDr9T5hr-6" value="Labs" style="swimlane;html=1;fontStyle=0;childLayout=stackLayout;horizontal=1;startSize=120;horizontalStack=0;resizeParent=1;resizeLast=0;collapsible=1;marginBottom=0;swimlaneFillColor=#ffffff;align=center;rounded=0;shadow=0;comic=0;labelBackgroundColor=none;strokeWidth=1;fontFamily=Verdana;fontSize=14;" vertex="1" parent="1">
          <mxGeometry x="1220" y="120" width="160" height="120" as="geometry" />
        </mxCell>
        <mxCell id="r-mluGW43JwhEDr9T5hr-43" style="edgeStyle=orthogonalEdgeStyle;rounded=0;orthogonalLoop=1;jettySize=auto;html=1;exitX=1;exitY=0.5;exitDx=0;exitDy=0;" edge="1" parent="1" source="r-mluGW43JwhEDr9T5hr-15" target="r-mluGW43JwhEDr9T5hr-22">
          <mxGeometry relative="1" as="geometry" />
        </mxCell>
        <mxCell id="r-mluGW43JwhEDr9T5hr-55" style="edgeStyle=orthogonalEdgeStyle;rounded=0;orthogonalLoop=1;jettySize=auto;html=1;exitX=1;exitY=0.25;exitDx=0;exitDy=0;entryX=0;entryY=0.5;entryDx=0;entryDy=0;" edge="1" parent="1" source="r-mluGW43JwhEDr9T5hr-15" target="r-mluGW43JwhEDr9T5hr-21">
          <mxGeometry relative="1" as="geometry" />
        </mxCell>
        <mxCell id="r-mluGW43JwhEDr9T5hr-56" style="edgeStyle=orthogonalEdgeStyle;rounded=0;orthogonalLoop=1;jettySize=auto;html=1;exitX=1;exitY=0.75;exitDx=0;exitDy=0;entryX=0;entryY=0.5;entryDx=0;entryDy=0;" edge="1" parent="1" source="r-mluGW43JwhEDr9T5hr-15" target="r-mluGW43JwhEDr9T5hr-17">
          <mxGeometry relative="1" as="geometry" />
        </mxCell>
        <mxCell id="r-mluGW43JwhEDr9T5hr-15" value="Group" style="swimlane;html=1;fontStyle=0;childLayout=stackLayout;horizontal=1;startSize=120;horizontalStack=0;resizeParent=1;resizeLast=0;collapsible=1;marginBottom=0;swimlaneFillColor=#ffffff;align=center;rounded=0;shadow=0;comic=0;labelBackgroundColor=none;strokeWidth=1;fontFamily=Verdana;fontSize=14;" vertex="1" parent="1">
          <mxGeometry x="1220" y="-530" width="160" height="120" as="geometry" />
        </mxCell>
        <mxCell id="r-mluGW43JwhEDr9T5hr-16" value="Class list" style="swimlane;html=1;fontStyle=0;childLayout=stackLayout;horizontal=1;startSize=120;horizontalStack=0;resizeParent=1;resizeLast=0;collapsible=1;marginBottom=0;swimlaneFillColor=#ffffff;align=center;rounded=0;shadow=0;comic=0;labelBackgroundColor=none;strokeWidth=1;fontFamily=Verdana;fontSize=14;" vertex="1" parent="1">
          <mxGeometry x="1220" y="-380" width="160" height="120" as="geometry" />
        </mxCell>
        <mxCell id="r-mluGW43JwhEDr9T5hr-17" value="Labs" style="swimlane;html=1;fontStyle=0;childLayout=stackLayout;horizontal=1;startSize=120;horizontalStack=0;resizeParent=1;resizeLast=0;collapsible=1;marginBottom=0;swimlaneFillColor=#ffffff;align=center;rounded=0;shadow=0;comic=0;labelBackgroundColor=none;strokeWidth=1;fontFamily=Verdana;fontSize=14;" vertex="1" parent="1">
          <mxGeometry x="1560" y="-380" width="160" height="120" as="geometry" />
        </mxCell>
        <mxCell id="r-mluGW43JwhEDr9T5hr-21" value="Attendance" style="swimlane;html=1;fontStyle=0;childLayout=stackLayout;horizontal=1;startSize=120;horizontalStack=0;resizeParent=1;resizeLast=0;collapsible=1;marginBottom=0;swimlaneFillColor=#ffffff;align=center;rounded=0;shadow=0;comic=0;labelBackgroundColor=none;strokeWidth=1;fontFamily=Verdana;fontSize=14;" vertex="1" parent="1">
          <mxGeometry x="1560" y="-680" width="160" height="120" as="geometry" />
        </mxCell>
        <mxCell id="r-mluGW43JwhEDr9T5hr-22" value="Exam" style="swimlane;html=1;fontStyle=0;childLayout=stackLayout;horizontal=1;startSize=120;horizontalStack=0;resizeParent=1;resizeLast=0;collapsible=1;marginBottom=0;swimlaneFillColor=#ffffff;align=center;rounded=0;shadow=0;comic=0;labelBackgroundColor=none;strokeWidth=1;fontFamily=Verdana;fontSize=14;" vertex="1" parent="1">
          <mxGeometry x="1560" y="-530" width="160" height="120" as="geometry" />
        </mxCell>
        <mxCell id="r-mluGW43JwhEDr9T5hr-31" value="Rating" style="swimlane;html=1;fontStyle=0;childLayout=stackLayout;horizontal=1;startSize=120;horizontalStack=0;resizeParent=1;resizeLast=0;collapsible=1;marginBottom=0;swimlaneFillColor=#ffffff;align=center;rounded=0;shadow=0;comic=0;labelBackgroundColor=none;strokeWidth=1;fontFamily=Verdana;fontSize=14;" vertex="1" parent="1">
          <mxGeometry x="1220" y="270" width="160" height="120" as="geometry" />
        </mxCell>
        <mxCell id="HjesYyCfLnxQGXRYato6-23" value="Lecturer" style="swimlane;html=1;fontStyle=0;childLayout=stackLayout;horizontal=1;startSize=120;horizontalStack=0;resizeParent=1;resizeLast=0;collapsible=1;marginBottom=0;swimlaneFillColor=#ffffff;align=center;rounded=0;shadow=0;comic=0;labelBackgroundColor=none;strokeWidth=1;fontFamily=Verdana;fontSize=14;" parent="1" vertex="1">
          <mxGeometry x="870" y="-250" width="160" height="120" as="geometry" />
        </mxCell>
        <mxCell id="r-mluGW43JwhEDr9T5hr-52" style="edgeStyle=orthogonalEdgeStyle;rounded=0;orthogonalLoop=1;jettySize=auto;html=1;exitX=1;exitY=0.25;exitDx=0;exitDy=0;" edge="1" parent="1" source="2e49270ec7c68f3f-8" target="HjesYyCfLnxQGXRYato6-15">
          <mxGeometry relative="1" as="geometry" />
        </mxCell>
        <mxCell id="r-mluGW43JwhEDr9T5hr-53" style="edgeStyle=orthogonalEdgeStyle;rounded=0;orthogonalLoop=1;jettySize=auto;html=1;exitX=1;exitY=0.75;exitDx=0;exitDy=0;" edge="1" parent="1" source="2e49270ec7c68f3f-8" target="HjesYyCfLnxQGXRYato6-14">
          <mxGeometry relative="1" as="geometry" />
        </mxCell>
        <mxCell id="2e49270ec7c68f3f-8" value="Sing in" style="swimlane;html=1;fontStyle=0;childLayout=stackLayout;horizontal=1;startSize=120;horizontalStack=0;resizeParent=1;resizeLast=0;collapsible=1;marginBottom=0;swimlaneFillColor=#ffffff;align=center;rounded=0;shadow=0;comic=0;labelBackgroundColor=none;strokeWidth=1;fontFamily=Verdana;fontSize=14;swimlaneLine=1;" parent="1" vertex="1">
          <mxGeometry x="320" y="-460" width="160" height="120" as="geometry" />
        </mxCell>
        <mxCell id="HjesYyCfLnxQGXRYato6-15" value="Sing in(lecturer)" style="swimlane;html=1;fontStyle=0;childLayout=stackLayout;horizontal=1;startSize=120;horizontalStack=0;resizeParent=1;resizeLast=0;collapsible=1;marginBottom=0;swimlaneFillColor=#ffffff;align=center;rounded=0;shadow=0;comic=0;labelBackgroundColor=none;strokeWidth=1;fontFamily=Verdana;fontSize=14;swimlaneLine=1;" parent="1" vertex="1">
          <mxGeometry x="585" y="-560" width="160" height="120" as="geometry" />
        </mxCell>
        <mxCell id="r-mluGW43JwhEDr9T5hr-57" value="Events" style="swimlane;html=1;fontStyle=0;childLayout=stackLayout;horizontal=1;startSize=120;horizontalStack=0;resizeParent=1;resizeLast=0;collapsible=1;marginBottom=0;swimlaneFillColor=#ffffff;align=center;rounded=0;shadow=0;comic=0;labelBackgroundColor=none;strokeWidth=1;fontFamily=Verdana;fontSize=14;" vertex="1" parent="1">
          <mxGeometry x="310" y="780" width="160" height="120" as="geometry" />
        </mxCell>
        <mxCell id="r-mluGW43JwhEDr9T5hr-60" value="Exams" style="swimlane;html=1;fontStyle=0;childLayout=stackLayout;horizontal=1;startSize=120;horizontalStack=0;resizeParent=1;resizeLast=0;collapsible=1;marginBottom=0;swimlaneFillColor=#ffffff;align=center;rounded=0;shadow=0;comic=0;labelBackgroundColor=none;strokeWidth=1;fontFamily=Verdana;fontSize=14;" vertex="1" parent="1">
          <mxGeometry x="1220" y="430" width="160" height="120" as="geometry" />
        </mxCell>
      </root>
    </mxGraphModel>
  </diagram>
</mxfile>
